<svg width="19" height="19" viewBox="0 0 19 19" fill="none" xmlns="http://www.w3.org/2000/svg">
<mask id="mask0_1_6866" style="mask-type:alpha" maskUnits="userSpaceOnUse" x="0" y="0" width="19" height="19">
<rect x="0.883423" y="0.88549" width="17.7276" height="17.7276" fill="#D9D9D9"/>
</mask>
<g mask="url(#mask0_1_6866)">
<path d="M3.46869 15.6593C3.16092 15.6593 2.89932 15.5516 2.68388 15.3361C2.46844 15.1207 2.36072 14.8591 2.36072 14.5513C2.36072 14.2435 2.46844 13.9819 2.68388 13.7665C2.89932 13.5511 3.16092 13.4433 3.46869 13.4433C3.77646 13.4433 4.03806 13.5511 4.2535 13.7665C4.46894 13.9819 4.57666 14.2435 4.57666 14.5513C4.57666 14.8591 4.46894 15.1207 4.2535 15.3361C4.03806 15.5516 3.77646 15.6593 3.46869 15.6593ZM6.79261 15.6593C6.59563 15.6593 6.42328 15.6008 6.27555 15.4839C6.12782 15.3669 6.03549 15.2099 5.99856 15.013C5.86314 14.2374 5.51536 13.5788 4.95522 13.0371C4.39508 12.4954 3.72722 12.1569 2.95164 12.0214C2.76697 11.9968 2.62232 11.9076 2.51768 11.7537C2.41304 11.5998 2.36072 11.4244 2.36072 11.2274C2.36072 11.0181 2.42535 10.8427 2.55461 10.7011C2.68388 10.5595 2.84084 10.5011 3.0255 10.5257C4.18272 10.6734 5.17374 11.1597 5.99856 11.9845C6.82338 12.8093 7.31582 13.8004 7.47586 14.9576C7.50048 15.1545 7.44508 15.3207 7.30966 15.4562C7.17424 15.5916 7.00189 15.6593 6.79261 15.6593ZM9.7472 15.6593C9.53792 15.6593 9.36249 15.5916 9.22091 15.4562C9.07934 15.3207 8.99624 15.1484 8.97162 14.9391C8.79927 13.3633 8.15603 12.0276 7.0419 10.9319C5.92777 9.83628 4.58282 9.20843 3.00703 9.04839C2.81006 9.02377 2.6531 8.93759 2.53615 8.78986C2.41919 8.64213 2.36072 8.46978 2.36072 8.27281C2.36072 8.06352 2.42535 7.88502 2.55461 7.73729C2.68388 7.58956 2.84084 7.52801 3.0255 7.55263C5.00754 7.71267 6.69412 8.48517 8.08524 9.87014C9.47636 11.2551 10.2643 12.9324 10.4489 14.9022C10.4735 15.1115 10.4151 15.29 10.2735 15.4377C10.1319 15.5854 9.95648 15.6593 9.7472 15.6593ZM11.9631 15.6593C11.9631 14.3174 11.7139 13.0648 11.2153 11.9014C10.7167 10.738 10.0334 9.72241 9.16551 8.85449C8.2976 7.98658 7.27888 7.30333 6.10936 6.80475C4.93983 6.30616 3.69028 6.05686 2.36072 6.05686V5.31822C2.36072 4.91196 2.50537 4.56418 2.79467 4.27488C3.08398 3.98557 3.43176 3.84092 3.83801 3.84092H15.6564C16.0626 3.84092 16.4104 3.98557 16.6997 4.27488C16.989 4.56418 17.1337 4.91196 17.1337 5.31822V14.182C17.1337 14.5883 16.989 14.936 16.6997 15.2253C16.4104 15.5146 16.0626 15.6593 15.6564 15.6593H11.9631Z" fill="#3366FF"/>
</g>
</svg>
