<svg width="19" height="19" viewBox="0 0 19 19" fill="none" xmlns="http://www.w3.org/2000/svg">
<mask id="mask0_1_6876" style="mask-type:alpha" maskUnits="userSpaceOnUse" x="0" y="0" width="19" height="19">
<rect x="0.883423" y="0.600403" width="17.7276" height="17.7276" fill="#D9D9D9"/>
</mask>
<g mask="url(#mask0_1_6876)">
<path d="M9.7472 10.2025C10.3627 10.2025 10.8859 9.9871 11.3168 9.55622C11.7477 9.12534 11.9631 8.60213 11.9631 7.98659C11.9631 7.37105 11.7477 6.84784 11.3168 6.41697C10.8859 5.98609 10.3627 5.77065 9.7472 5.77065C9.13166 5.77065 8.60845 5.98609 8.17757 6.41697C7.74669 6.84784 7.53126 7.37105 7.53126 7.98659C7.53126 8.60213 7.74669 9.12534 8.17757 9.55622C8.60845 9.9871 9.13166 10.2025 9.7472 10.2025ZM3.83801 15.3731C3.43176 15.3731 3.08398 15.2284 2.79467 14.9391C2.50537 14.6498 2.36072 14.302 2.36072 13.8958V5.032C2.36072 4.62574 2.50537 4.27796 2.79467 3.98866C3.08398 3.69936 3.43176 3.5547 3.83801 3.5547H15.6564C16.0626 3.5547 16.4104 3.69936 16.6997 3.98866C16.989 4.27796 17.1337 4.62574 17.1337 5.032V13.8958C17.1337 14.302 16.989 14.6498 16.6997 14.9391C16.4104 15.2284 16.0626 15.3731 15.6564 15.3731H3.83801ZM5.13065 13.8958H14.3638C13.8098 13.2064 13.1388 12.6647 12.3509 12.2708C11.563 11.8768 10.6951 11.6798 9.7472 11.6798C8.79927 11.6798 7.93136 11.8768 7.14346 12.2708C6.35557 12.6647 5.68463 13.2064 5.13065 13.8958ZM4.57666 17.589C4.36738 17.589 4.19195 17.5182 4.05038 17.3767C3.9088 17.2351 3.83801 17.0597 3.83801 16.8504C3.83801 16.6411 3.9088 16.4657 4.05038 16.3241C4.19195 16.1825 4.36738 16.1117 4.57666 16.1117H14.9177C15.127 16.1117 15.3024 16.1825 15.444 16.3241C15.5856 16.4657 15.6564 16.6411 15.6564 16.8504C15.6564 17.0597 15.5856 17.2351 15.444 17.3767C15.3024 17.5182 15.127 17.589 14.9177 17.589H4.57666ZM4.57666 2.81606C4.36738 2.81606 4.19195 2.74527 4.05038 2.6037C3.9088 2.46212 3.83801 2.28669 3.83801 2.07741C3.83801 1.86812 3.9088 1.6927 4.05038 1.55112C4.19195 1.40955 4.36738 1.33876 4.57666 1.33876H14.9177C15.127 1.33876 15.3024 1.40955 15.444 1.55112C15.5856 1.6927 15.6564 1.86812 15.6564 2.07741C15.6564 2.28669 15.5856 2.46212 15.444 2.6037C15.3024 2.74527 15.127 2.81606 14.9177 2.81606H4.57666Z" fill="#3366FF"/>
</g>
</svg>
