<svg width="19" height="19" viewBox="0 0 19 19" fill="none" xmlns="http://www.w3.org/2000/svg">
<mask id="mask0_1_6871" style="mask-type:alpha" maskUnits="userSpaceOnUse" x="0" y="0" width="19" height="19">
<rect x="0.883423" y="0.743057" width="17.7276" height="17.7276" fill="#D9D9D9"/>
</mask>
<g mask="url(#mask0_1_6871)">
<path d="M15.2871 15.8855C15.4963 15.8855 15.6718 15.8147 15.8133 15.6731C15.9549 15.5315 16.0257 15.3561 16.0257 15.1468C16.0257 14.9375 15.9549 14.7621 15.8133 14.6205C15.6718 14.4789 15.4963 14.4082 15.2871 14.4082C15.0778 14.4082 14.9023 14.4789 14.7608 14.6205C14.6192 14.7621 14.5484 14.9375 14.5484 15.1468C14.5484 15.3561 14.6192 15.5315 14.7608 15.6731C14.9023 15.8147 15.0778 15.8855 15.2871 15.8855ZM9.7472 16.9934C8.47919 16.9934 7.30043 16.6918 6.21092 16.0886C5.12142 15.4853 4.26274 14.7036 3.63489 13.7434L6.88494 10.4933L8.78696 12.1183C8.93469 12.2538 9.10396 12.3153 9.29478 12.303C9.48559 12.2907 9.64871 12.2168 9.78413 12.0814L12.7018 9.18222V9.60694C12.7018 9.81622 12.7726 9.99165 12.9142 10.1332C13.0557 10.2748 13.2312 10.3456 13.4404 10.3456C13.6497 10.3456 13.8252 10.2748 13.9667 10.1332C14.1083 9.99165 14.1791 9.81622 14.1791 9.60694V7.391C14.1791 7.18171 14.1083 7.00628 13.9667 6.86471C13.8252 6.72314 13.6497 6.65235 13.4404 6.65235H11.2245C11.0152 6.65235 10.8398 6.72314 10.6982 6.86471C10.5566 7.00628 10.4858 7.18171 10.4858 7.391C10.4858 7.60028 10.5566 7.77571 10.6982 7.91728C10.8398 8.05886 11.0152 8.12964 11.2245 8.12964H11.6492L9.23015 10.5487L7.30966 8.94216C7.16193 8.81905 6.99266 8.76057 6.80184 8.76673C6.61102 8.77288 6.4479 8.84367 6.31249 8.97909L2.89624 12.3953C2.72389 11.9891 2.59155 11.5305 2.49921 11.0196C2.40688 10.5087 2.36072 10.0378 2.36072 9.60694C2.36072 8.58514 2.55461 7.6249 2.9424 6.72621C3.33019 5.82752 3.85648 5.04579 4.52126 4.381C5.18605 3.71622 5.96778 3.18993 6.86647 2.80214C7.76516 2.41435 8.7254 2.22046 9.7472 2.22046C10.769 2.22046 11.7292 2.41435 12.6279 2.80214C13.5266 3.18993 14.3084 3.71622 14.9731 4.381C15.6379 5.04579 16.1642 5.82752 16.552 6.72621C16.9398 7.6249 17.1337 8.58514 17.1337 9.60694V15.5161C17.1337 15.9224 16.989 16.2702 16.6997 16.5595C16.4104 16.8488 16.0626 16.9934 15.6564 16.9934H9.7472Z" fill="#3366FF"/>
</g>
</svg>
