<svg width="19" height="19" viewBox="0 0 19 19" fill="none" xmlns="http://www.w3.org/2000/svg">
<mask id="mask0_1_6886" style="mask-type:alpha" maskUnits="userSpaceOnUse" x="0" y="0" width="19" height="19">
<rect x="0.883423" y="0.315811" width="17.7276" height="17.7276" fill="#D9D9D9"/>
</mask>
<g mask="url(#mask0_1_6886)">
<path d="M6.79261 12.8729H10.4858C10.6951 12.8729 10.8706 12.8021 11.0121 12.6605C11.1537 12.5189 11.2245 12.3435 11.2245 12.1342C11.2245 11.9249 11.1537 11.7495 11.0121 11.6079C10.8706 11.4663 10.6951 11.3956 10.4858 11.3956H6.79261C6.58332 11.3956 6.40789 11.4663 6.26632 11.6079C6.12474 11.7495 6.05396 11.9249 6.05396 12.1342C6.05396 12.3435 6.12474 12.5189 6.26632 12.6605C6.40789 12.8021 6.58332 12.8729 6.79261 12.8729ZM6.79261 9.91827H12.7018C12.9111 9.91827 13.0865 9.84748 13.2281 9.7059C13.3697 9.56433 13.4404 9.3889 13.4404 9.17962C13.4404 8.97033 13.3697 8.79491 13.2281 8.65333C13.0865 8.51176 12.9111 8.44097 12.7018 8.44097H6.79261C6.58332 8.44097 6.40789 8.51176 6.26632 8.65333C6.12474 8.79491 6.05396 8.97033 6.05396 9.17962C6.05396 9.3889 6.12474 9.56433 6.26632 9.7059C6.40789 9.84748 6.58332 9.91827 6.79261 9.91827ZM6.79261 6.96367H12.7018C12.9111 6.96367 13.0865 6.89289 13.2281 6.75131C13.3697 6.60974 13.4404 6.43431 13.4404 6.22502C13.4404 6.01574 13.3697 5.84031 13.2281 5.69874C13.0865 5.55716 12.9111 5.48638 12.7018 5.48638H6.79261C6.58332 5.48638 6.40789 5.55716 6.26632 5.69874C6.12474 5.84031 6.05396 6.01574 6.05396 6.22502C6.05396 6.43431 6.12474 6.60974 6.26632 6.75131C6.40789 6.89289 6.58332 6.96367 6.79261 6.96367ZM4.57666 15.8275C4.17041 15.8275 3.82262 15.6828 3.53332 15.3935C3.24402 15.1042 3.09937 14.7564 3.09937 14.3502V4.00908C3.09937 3.60282 3.24402 3.25504 3.53332 2.96574C3.82262 2.67644 4.17041 2.53178 4.57666 2.53178H14.9177C15.324 2.53178 15.6718 2.67644 15.9611 2.96574C16.2504 3.25504 16.395 3.60282 16.395 4.00908V14.3502C16.395 14.7564 16.2504 15.1042 15.9611 15.3935C15.6718 15.6828 15.324 15.8275 14.9177 15.8275H4.57666Z" fill="#3366FF"/>
</g>
</svg>
