<svg width="137" height="34" viewBox="0 0 137 34" fill="none" xmlns="http://www.w3.org/2000/svg">
<path d="M0.485352 23.6974H3.52715V18.2652H11.2354V15.5597H3.52715V12.3462H12.5953V9.49048H0.485352V23.6974Z" fill="white"/>
<path d="M27.2602 11.3084C26.5874 10.6715 25.7644 10.1704 24.8268 9.8269C23.8892 9.4762 22.8371 9.30444 21.7134 9.30444C20.5897 9.30444 19.5305 9.48336 18.5929 9.8269C17.6553 10.1776 16.8394 10.6715 16.1594 11.3084C15.4867 11.9454 14.957 12.7184 14.5849 13.6059C14.2127 14.4934 14.0266 15.4811 14.0266 16.5475C14.0266 17.6139 14.2127 18.6159 14.5849 19.5106C14.957 20.4052 15.4867 21.1925 16.1594 21.8367C16.8322 22.4808 17.6481 22.989 18.5929 23.3468C19.5305 23.7047 20.5826 23.8836 21.7206 23.8836C22.8586 23.8836 23.9035 23.7047 24.8411 23.3468C25.7787 22.989 26.6018 22.4808 27.2745 21.8367C27.9473 21.1925 28.4769 20.4052 28.8491 19.5106C29.2213 18.6159 29.4074 17.6211 29.4074 16.5475C29.4074 15.4739 29.2213 14.4934 28.8491 13.6059C28.4769 12.7184 27.9473 11.9454 27.2745 11.3084H27.2674H27.2602ZM21.7063 20.9993C21.0335 20.9993 20.4108 20.8919 19.8454 20.6844C19.28 20.4768 18.7861 20.1762 18.371 19.7897C17.963 19.4032 17.6338 18.938 17.4048 18.3941C17.1758 17.8501 17.0541 17.2346 17.0541 16.5475C17.0541 15.8604 17.1686 15.252 17.4048 14.7081C17.6338 14.1713 17.963 13.7133 18.371 13.3411C18.7861 12.9689 19.28 12.6755 19.8454 12.4822C20.4108 12.2818 21.0406 12.1816 21.7134 12.1816C22.3862 12.1816 23.0089 12.2818 23.5814 12.4822C24.1468 12.6755 24.6407 12.9689 25.0486 13.3411C25.4566 13.7133 25.7787 14.1713 26.0149 14.7081C26.2511 15.2449 26.3656 15.8604 26.3656 16.5475C26.3656 17.2346 26.2511 17.8501 26.0149 18.3941C25.7787 18.938 25.4566 19.4104 25.0415 19.7897C24.6335 20.1762 24.1397 20.4768 23.5743 20.6844C23.0089 20.8919 22.379 20.9993 21.7134 20.9993H21.7063Z" fill="white"/>
<path d="M43.2207 18.4799C43.6072 18.165 43.9293 17.7999 44.1798 17.392C44.4374 16.9912 44.6235 16.5403 44.7452 16.0608C44.8669 15.5812 44.9241 15.0731 44.9241 14.5506C44.9241 13.7705 44.8025 13.0547 44.552 12.4321C44.3014 11.8022 43.9221 11.2654 43.414 10.8217C42.913 10.3851 42.2688 10.0559 41.5102 9.82684C40.7586 9.60497 39.864 9.49048 38.8405 9.49048H31.9768V23.6974H35.0186V19.7682H38.8334L41.3026 23.6974H45.0172L42.097 19.1741C42.5193 18.9809 42.8987 18.7519 43.2279 18.487L43.2207 18.4799ZM41.7463 14.5434C41.7463 14.9085 41.6891 15.2449 41.5746 15.5383C41.46 15.8317 41.2883 16.0751 41.0592 16.2755C40.8231 16.483 40.5296 16.6405 40.1789 16.755C39.8211 16.8695 39.3916 16.934 38.9121 16.934H35.0186V12.3176H38.9121C39.8783 12.3176 40.6012 12.518 41.0664 12.9045C41.5245 13.291 41.7463 13.8206 41.7463 14.5363V14.5434Z" fill="white"/>
<path d="M64.2629 9.48324L60.6271 18.5729L60.1619 20.1546L59.5535 18.5872L58.2509 15.345L60.6915 9.47607H57.5352L56.7622 11.7879L55.932 9.47607H52.7757L55.2163 15.345L53.928 18.5371L53.4413 20.1617L52.8114 18.5227L49.2042 9.48324H45.8833L51.8452 23.6902H54.7224L55.9606 20.8274L56.7336 18.6659L57.5066 20.8345L58.7233 23.6902H61.6076L67.5624 9.48324H64.2414H64.2629Z" fill="white"/>
<path d="M96.0552 18.4799C96.4417 18.165 96.7638 17.7999 97.0143 17.392C97.2719 16.9912 97.458 16.5403 97.5797 16.0608C97.7014 15.5812 97.7586 15.0731 97.7586 14.5506C97.7586 13.7705 97.6369 13.0547 97.3864 12.4321C97.1359 11.8022 96.7566 11.2654 96.2484 10.8217C95.7474 10.3851 95.1033 10.0559 94.3446 9.82684C93.5931 9.60497 92.6985 9.49048 91.675 9.49048H84.8113V23.6974H87.8531V19.7682H91.6679L94.1371 23.6974H97.8517L94.9315 19.1741C95.3538 18.9809 95.7331 18.7519 96.0624 18.487L96.0552 18.4799ZM94.5808 14.5434C94.5808 14.9085 94.5236 15.2449 94.409 15.5383C94.2945 15.8317 94.1228 16.0751 93.8937 16.2755C93.6575 16.483 93.3641 16.6405 93.0134 16.755C92.6555 16.8695 92.2261 16.934 91.7466 16.934H87.8531V12.3176H91.7466C92.7128 12.3176 93.4357 12.518 93.9009 12.9045C94.3589 13.291 94.5808 13.8206 94.5808 14.5363V14.5434Z" fill="white"/>
<path d="M111.887 11.3727C111.192 10.7643 110.305 10.2919 109.246 9.96984C108.201 9.64776 106.948 9.48315 105.531 9.48315H100.535V23.6902H105.553C106.97 23.6973 108.222 23.5184 109.267 23.1605C110.319 22.8026 111.207 22.3017 111.901 21.6647C112.595 21.0277 113.125 20.2547 113.461 19.3815C113.798 18.5084 113.969 17.5493 113.969 16.5258C113.969 15.4523 113.798 14.4645 113.454 13.5985C113.111 12.7254 112.581 11.9739 111.879 11.3655L111.887 11.3727ZM106.19 20.8702H103.577V12.3246H106.19C106.963 12.3246 107.642 12.4248 108.222 12.6252C108.788 12.8184 109.274 13.1047 109.654 13.4625C110.026 13.8204 110.319 14.2642 110.505 14.7723C110.699 15.2876 110.792 15.8888 110.792 16.533C110.792 17.1771 110.691 17.7998 110.505 18.3366C110.319 18.8662 110.026 19.3243 109.654 19.6965C109.274 20.0686 108.795 20.362 108.222 20.5696C107.642 20.7772 106.963 20.8774 106.197 20.8774L106.19 20.8702Z" fill="white"/>
<path d="M119.652 9.30444H116.596V23.5115H119.652V9.30444Z" fill="white"/>
<path d="M133.48 9.30444V13.6846L125.542 9.30444H122.644V23.5115H125.678V12.8258L133.473 17.0986V23.5115H136.514V9.30444H133.473H133.48Z" fill="white"/>
<path d="M73.6744 9.48315L67.3403 23.6902H70.5611L75.2347 13.0617L80.0515 23.6902H83.265L76.7377 9.48315H73.6744Z" fill="white"/>
</svg>
