<svg width="175" height="34" viewBox="0 0 175 34" fill="none" xmlns="http://www.w3.org/2000/svg">
<path d="M0.00715324 16.4962L21.1208 9.86864C22.0656 9.56804 23.132 10.0619 23.1391 10.7991L23.2179 15.9809L0 23.2096V16.4962H0.00715324Z" fill="white"/>
<path d="M0.00720215 6.81963L21.4859 0.0775854C22.2588 -0.165758 23.132 0.235048 23.1392 0.843408L23.2251 6.30433L0.00720215 13.5331V6.81963Z" fill="white"/>
<path d="M13.1978 26.509L0 22.4008V27.8259C0 28.6132 0.651301 29.3217 1.6533 29.6366L13.1978 33.2582V26.509Z" fill="white"/>
<path d="M38.9707 23.7353H42.0125V18.303H49.7208V15.5976H42.0125V12.384H51.0806V9.52832H38.9707V23.7353Z" fill="white"/>
<path d="M65.7458 11.3462C65.073 10.7092 64.25 10.2082 63.3124 9.86462C62.3748 9.51392 61.3227 9.34216 60.199 9.34216C59.0753 9.34216 58.0161 9.52108 57.0785 9.86462C56.1409 10.2153 55.325 10.7092 54.645 11.3462C53.9723 11.9832 53.4426 12.7561 53.0705 13.6436C52.6983 14.5311 52.5122 15.5188 52.5122 16.5852C52.5122 17.6516 52.6983 18.6536 53.0705 19.5483C53.4426 20.4429 53.9723 21.2302 54.645 21.8744C55.3178 22.5185 56.1337 23.0267 57.0785 23.3845C58.0161 23.7424 59.0682 23.9213 60.2062 23.9213C61.3442 23.9213 62.3891 23.7424 63.3267 23.3845C64.2643 23.0267 65.0874 22.5185 65.7601 21.8744C66.4329 21.2302 66.9625 20.4429 67.3347 19.5483C67.7069 18.6536 67.893 17.6588 67.893 16.5852C67.893 15.5116 67.7069 14.5311 67.3347 13.6436C66.9625 12.7561 66.4329 11.9832 65.7601 11.3462H65.753H65.7458ZM60.1918 21.037C59.5191 21.037 58.8964 20.9296 58.331 20.7221C57.7656 20.5145 57.2717 20.2139 56.8566 19.8274C56.4486 19.4409 56.1194 18.9757 55.8904 18.4318C55.6614 17.8878 55.5397 17.2723 55.5397 16.5852C55.5397 15.8981 55.6542 15.2898 55.8904 14.7458C56.1194 14.209 56.4486 13.751 56.8566 13.3788C57.2717 13.0066 57.7656 12.7132 58.331 12.5199C58.8964 12.3195 59.5262 12.2194 60.199 12.2194C60.8718 12.2194 61.4944 12.3195 62.067 12.5199C62.6324 12.7132 63.1263 13.0066 63.5342 13.3788C63.9422 13.751 64.2643 14.209 64.5005 14.7458C64.7367 15.2826 64.8512 15.8981 64.8512 16.5852C64.8512 17.2723 64.7367 17.8878 64.5005 18.4318C64.2643 18.9757 63.9422 19.4481 63.5271 19.8274C63.1191 20.2139 62.6253 20.5145 62.0599 20.7221C61.4945 20.9296 60.8646 21.037 60.199 21.037H60.1918Z" fill="white"/>
<path d="M81.7062 18.5177C82.0927 18.2028 82.4147 17.8378 82.6652 17.4298C82.9229 17.029 83.109 16.5781 83.2307 16.0986C83.3523 15.6191 83.4096 15.1109 83.4096 14.5884C83.4096 13.8083 83.2879 13.0926 83.0374 12.4699C82.7869 11.8401 82.4076 11.3033 81.8994 10.8595C81.3984 10.423 80.7543 10.0937 79.9956 9.86469C79.2441 9.64281 78.3495 9.52832 77.326 9.52832H70.4623V23.7353H73.5041V19.806H77.3188L79.7881 23.7353H83.5026L80.5825 19.2119C81.0048 19.0187 81.3841 18.7897 81.7134 18.5249L81.7062 18.5177ZM80.2318 14.5813C80.2318 14.9463 80.1746 15.2827 80.06 15.5761C79.9455 15.8696 79.7738 16.1129 79.5447 16.3133C79.3085 16.5209 79.0151 16.6784 78.6644 16.7929C78.3065 16.9074 77.8771 16.9718 77.3976 16.9718H73.5041V12.3554H77.3976C78.3638 12.3554 79.0867 12.5558 79.5519 12.9423C80.0099 13.3288 80.2318 13.8584 80.2318 14.5741V14.5813Z" fill="white"/>
<path d="M102.748 9.52108L99.1126 18.6107L98.6473 20.1924L98.039 18.625L96.7364 15.3828L99.177 9.51392H96.0206L95.2477 11.8257L94.4174 9.51392H91.2611L93.7017 15.3828L92.4134 18.5749L91.9267 20.1996L91.2969 18.5606L87.6897 9.52108H84.3688L90.3307 23.7281H93.2079L94.4461 20.8652L95.219 18.7037L95.992 20.8723L97.2087 23.7281H100.093L106.048 9.52108H102.727H102.748Z" fill="white"/>
<path d="M134.54 18.5177C134.927 18.2028 135.249 17.8378 135.499 17.4298C135.757 17.029 135.943 16.5781 136.065 16.0986C136.187 15.6191 136.244 15.1109 136.244 14.5884C136.244 13.8083 136.122 13.0926 135.872 12.4699C135.621 11.8401 135.242 11.3033 134.734 10.8595C134.233 10.423 133.589 10.0937 132.83 9.86469C132.078 9.64281 131.184 9.52832 130.16 9.52832H123.297V23.7353H126.338V19.806H130.153L132.622 23.7353H136.337L133.417 19.2119C133.839 19.0187 134.218 18.7897 134.548 18.5249L134.54 18.5177ZM133.066 14.5813C133.066 14.9463 133.009 15.2827 132.894 15.5761C132.78 15.8696 132.608 16.1129 132.379 16.3133C132.143 16.5209 131.849 16.6784 131.499 16.7929C131.141 16.9074 130.711 16.9718 130.232 16.9718H126.338V12.3554H130.232C131.198 12.3554 131.921 12.5558 132.386 12.9423C132.844 13.3288 133.066 13.8584 133.066 14.5741V14.5813Z" fill="white"/>
<path d="M150.372 11.4106C149.678 10.8023 148.79 10.3299 147.731 10.0078C146.686 9.68573 145.434 9.52112 144.017 9.52112H139.021V23.7281H144.038C145.455 23.7353 146.708 23.5563 147.753 23.1985C148.805 22.8406 149.692 22.3396 150.386 21.7026C151.081 21.0656 151.61 20.2927 151.947 19.4195C152.283 18.5463 152.455 17.5873 152.455 16.5638C152.455 15.4902 152.283 14.5025 151.94 13.6365C151.596 12.7633 151.066 12.0118 150.365 11.4035L150.372 11.4106ZM144.675 20.9082H142.063V12.3625H144.675C145.448 12.3625 146.128 12.4627 146.708 12.6631C147.273 12.8564 147.76 13.1426 148.139 13.5005C148.511 13.8584 148.805 14.3021 148.991 14.8103C149.184 15.3256 149.277 15.9268 149.277 16.571C149.277 17.2151 149.177 17.8377 148.991 18.3745C148.805 18.9042 148.511 19.3622 148.139 19.7344C147.76 20.1066 147.28 20.4 146.708 20.6076C146.128 20.8151 145.448 20.9153 144.682 20.9153L144.675 20.9082Z" fill="white"/>
<path d="M158.138 9.34216H155.082V23.5492H158.138V9.34216Z" fill="white"/>
<path d="M171.965 9.34216V13.7223L164.028 9.34216H161.129V23.5492H164.164V12.8635L171.958 17.1363V23.5492H175V9.34216H171.958H171.965Z" fill="white"/>
<path d="M112.16 9.52112L105.826 23.7281H109.047L113.72 13.0997L118.537 23.7281H121.751L115.223 9.52112H112.16Z" fill="white"/>
</svg>
