<svg width="18" height="19" viewBox="0 0 18 19" fill="none" xmlns="http://www.w3.org/2000/svg">
<mask id="mask0_37_609" style="mask-type:alpha" maskUnits="userSpaceOnUse" x="0" y="0" width="19" height="19">
<rect x="0.280396" y="0.458328" width="17.7276" height="17.7276" fill="#D9D9D9"/>
</mask>
<g mask="url(#mask0_37_609)">
<path d="M6.92823 7.10566C6.71894 7.10566 6.54351 7.03487 6.40194 6.8933C6.26036 6.75172 6.18958 6.57629 6.18958 6.36701C6.18958 6.15773 6.26036 5.9823 6.40194 5.84072C6.54351 5.69915 6.71894 5.62836 6.92823 5.62836H11.3601C11.5694 5.62836 11.7448 5.69915 11.8864 5.84072C12.028 5.9823 12.0988 6.15773 12.0988 6.36701C12.0988 6.57629 12.028 6.75172 11.8864 6.8933C11.7448 7.03487 11.5694 7.10566 11.3601 7.10566H6.92823ZM5.45093 17.4467C5.04467 17.4467 4.69689 17.3021 4.40759 17.0128C4.11828 16.7235 3.97363 16.3757 3.97363 15.9694V2.67377C3.97363 2.26751 4.11828 1.91973 4.40759 1.63043C4.69689 1.34112 5.04467 1.19647 5.45093 1.19647H12.8374C13.2437 1.19647 13.5914 1.34112 13.8808 1.63043C14.1701 1.91973 14.3147 2.26751 14.3147 2.67377V15.9694C14.3147 16.3757 14.1701 16.7235 13.8808 17.0128C13.5914 17.3021 13.2437 17.4467 12.8374 17.4467H5.45093ZM5.45093 13.7535H12.8374V4.88971H5.45093V13.7535Z" fill="#3366FF"/>
</g>
</svg>
