<svg width="37" height="37" viewBox="0 0 37 37" fill="none" xmlns="http://www.w3.org/2000/svg">
<circle cx="18.5" cy="18.5" r="18.5" fill="white"/>
<path d="M20 11V11.625C22.2812 12.0938 24 14.0938 24 16.5V17.0938C24 18.5625 24.5312 20 25.5 21.0938L25.7188 21.3438C26 21.6562 26.0625 22.0625 25.9062 22.4375C25.75 22.7812 25.375 23 25 23H13C12.5938 23 12.2188 22.7812 12.0625 22.4375C11.9062 22.0625 11.9688 21.6562 12.25 21.3438L12.4688 21.0938C13.4375 20 14 18.5625 14 17.0938V16.5C14 14.0938 15.6875 12.0938 18 11.625V11C18 10.4688 18.4375 10 19 10C19.5312 10 20 10.4688 20 11ZM19 26C18.4688 26 17.9375 25.8125 17.5625 25.4375C17.1875 25.0625 17 24.5312 17 24H21C21 24.5312 20.7812 25.0625 20.4062 25.4375C20.0312 25.8125 19.5 26 19 26Z" fill="black"/>
</svg>
