<svg width="129" height="130" viewBox="0 0 129 130" fill="none" xmlns="http://www.w3.org/2000/svg">
<path d="M-0.000109359 65.0001C-0.000110013 48.4317 6.37568 32.4987 17.8055 20.5042C29.2353 8.50958 44.8426 1.37339 61.3917 0.574954C77.9408 -0.223478 94.1625 5.3771 106.694 16.2156C119.225 27.0542 127.105 42.2994 128.7 58.7908L109.44 60.6536C108.324 49.1096 102.808 38.4379 94.0358 30.851C85.2637 23.264 73.9085 19.3436 62.3242 19.9025C50.7398 20.4614 39.8147 25.4567 31.8138 33.8529C23.813 42.2491 19.3499 53.4022 19.3499 65.0001L-0.000109359 65.0001Z" fill="#3366FF"/>
<path d="M128.695 58.7389C129.794 70.0053 127.909 81.3625 123.228 91.6694C118.548 101.976 111.237 110.87 102.031 117.457C92.8246 124.043 82.0471 128.091 70.781 129.194C59.5149 130.296 48.1571 128.414 37.8488 123.737L45.8441 106.116C53.06 109.39 61.0104 110.707 68.8967 109.936C76.7829 109.164 84.3272 106.33 90.7716 101.72C97.2159 97.1089 102.333 90.8834 105.61 83.6686C108.886 76.4537 110.206 68.5037 109.437 60.6172L128.695 58.7389Z" fill="#4FBEAB"/>
<path d="M38.369 123.97C26.9244 118.898 17.2028 110.606 10.3898 100.105C3.57675 89.6031 -0.0332052 77.346 0.000119516 64.8281L19.3501 64.8796C19.3267 73.6421 21.8537 82.2221 26.6228 89.5732C31.3919 96.9242 38.197 102.729 46.2083 106.279L38.369 123.97Z" fill="#F3F5F8"/>
</svg>
