<svg width="19" height="20" viewBox="0 0 19 20" fill="none" xmlns="http://www.w3.org/2000/svg">
<path d="M18.3539 16.8665C18.8745 17.4219 18.8745 18.2896 18.3539 18.8449C17.7986 19.3655 16.9309 19.3655 16.3756 18.8449L12.2453 14.6799C10.8223 15.6171 9.08693 16.103 7.2127 15.86C4.01958 15.4088 1.4512 12.8057 1.03471 9.64731C0.444674 4.92704 4.43608 0.935639 9.15634 1.52567C12.3148 1.94217 14.9178 4.51055 15.369 7.70367C15.612 9.57789 15.1261 11.3133 14.189 12.7016L18.3539 16.8665ZM3.74192 8.67549C3.74192 11.1397 5.72027 13.1181 8.18452 13.1181C10.6141 13.1181 12.6271 11.1397 12.6271 8.67549C12.6271 6.24594 10.6141 4.23288 8.18452 4.23288C5.72027 4.23288 3.74192 6.24594 3.74192 8.67549Z" fill="white"/>
</svg>
