<svg width="37" height="37" viewBox="0 0 37 37" fill="none" xmlns="http://www.w3.org/2000/svg">
<circle cx="18.5" cy="18.5" r="18.5" fill="white"/>
<path d="M26.4688 16.2188C26.5938 16.5 26.5 16.7812 26.2812 17L24.9375 18.2188C24.9688 18.4688 25 18.75 25 19C25 19.2812 24.9688 19.5625 24.9375 19.8125L26.2812 21.0312C26.5 21.25 26.5938 21.5312 26.4688 21.8125C26.3438 22.1875 26.1875 22.5312 26 22.875L25.8438 23.125C25.625 23.4688 25.4062 23.8125 25.1562 24.125C24.9688 24.3438 24.6562 24.4062 24.375 24.3125L22.6562 23.7812C22.2188 24.0938 21.75 24.3438 21.2812 24.5625L20.875 26.3438C20.8125 26.625 20.5938 26.8438 20.3125 26.9062C19.875 26.9688 19.4375 27 18.9688 27C18.5312 27 18.0938 26.9688 17.6562 26.9062C17.375 26.8438 17.1562 26.625 17.0938 26.3438L16.6875 24.5625C16.2188 24.3438 15.75 24.0938 15.3125 23.7812L13.5938 24.3125C13.3125 24.4062 13 24.3438 12.8125 24.125C12.5625 23.8125 12.3438 23.4688 12.125 23.125L11.9688 22.875C11.7812 22.5312 11.625 22.1875 11.5 21.8125C11.375 21.5312 11.4688 21.25 11.6875 21.0312L13.0312 19.8125C13 19.5625 13 19.2812 13 19C13 18.75 13 18.4688 13.0312 18.2188L11.6875 17C11.4688 16.7812 11.375 16.5 11.5 16.2188C11.625 15.8438 11.7812 15.5 11.9688 15.1562L12.125 14.9062C12.3438 14.5625 12.5625 14.2188 12.8125 13.9062C13 13.6875 13.3125 13.625 13.5938 13.7188L15.3125 14.25C15.75 13.9375 16.2188 13.6562 16.6875 13.4688L17.0938 11.6875C17.1562 11.4062 17.375 11.1875 17.6562 11.125C18.0938 11.0625 18.5312 11 19 11C19.4375 11 19.875 11.0625 20.3125 11.125C20.5938 11.1875 20.8125 11.4062 20.875 11.6875L21.2812 13.4688C21.75 13.6562 22.2188 13.9375 22.6562 14.25L24.375 13.7188C24.6562 13.625 24.9688 13.6875 25.1562 13.9062C25.4062 14.2188 25.625 14.5625 25.8438 14.9062L26 15.1562C26.1875 15.5 26.3438 15.8438 26.4688 16.2188ZM19 21.5C20.375 21.5 21.5 20.4062 21.5 19C21.5 17.625 20.375 16.5 19 16.5C17.5938 16.5 16.5 17.625 16.5 19C16.5 20.4062 17.5938 21.5 19 21.5Z" fill="black"/>
</svg>
