<svg width="19" height="18" viewBox="0 0 19 18" fill="none" xmlns="http://www.w3.org/2000/svg">
<mask id="mask0_1_6891" style="mask-type:alpha" maskUnits="userSpaceOnUse" x="0" y="0" width="19" height="18">
<rect x="0.883423" y="0.173248" width="17.7276" height="17.7276" fill="#D9D9D9"/>
</mask>
<g mask="url(#mask0_1_6891)">
<path d="M8.95315 8.46448L7.90058 7.41191C7.76516 7.27649 7.59589 7.2057 7.39276 7.19955C7.18963 7.19339 7.0142 7.26418 6.86647 7.41191C6.73105 7.54733 6.66334 7.71968 6.66334 7.92896C6.66334 8.13824 6.73105 8.3106 6.86647 8.44601L8.4361 10.0341C8.58383 10.1818 8.75618 10.2557 8.95315 10.2557C9.15013 10.2557 9.32248 10.1818 9.47021 10.0341L12.9049 6.89485C12.9049 6.69788 12.8926 6.50706 12.868 6.3224C12.8434 6.13774 12.7633 5.9777 12.6279 5.84228C12.4802 5.69455 12.3048 5.62068 12.1016 5.62068C11.8985 5.62068 11.7231 5.69455 11.5754 5.84228L8.95315 8.46448ZM1.62207 15.6848V14.2075H17.1337C17.343 14.2075 17.5184 14.2783 17.66 14.4198C17.8015 14.5614 17.8723 14.7368 17.8723 14.9461C17.8723 15.1554 17.8015 15.3308 17.66 15.4724C17.5184 15.614 17.343 15.6848 17.1337 15.6848H1.62207ZM3.83801 13.4688C3.43176 13.4688 3.08398 13.3242 2.79467 13.0349C2.50537 12.7456 2.36072 12.3978 2.36072 11.9915V3.8664C2.36072 3.46014 2.50537 3.11236 2.79467 2.82305C3.08398 2.53375 3.43176 2.3891 3.83801 2.3891H15.6564C16.0626 2.3891 16.4104 2.53375 16.6997 2.82305C16.989 3.11236 17.1337 3.46014 17.1337 3.8664V11.9915C17.1337 12.3978 16.989 12.7456 16.6997 13.0349C16.4104 13.3242 16.0626 13.4688 15.6564 13.4688H3.83801Z" fill="#3366FF"/>
</g>
</svg>
