<svg width="19" height="18" viewBox="0 0 19 18" fill="none" xmlns="http://www.w3.org/2000/svg">
<mask id="mask0_1_6861" style="mask-type:alpha" maskUnits="userSpaceOnUse" x="0" y="0" width="19" height="18">
<rect x="0.883423" y="0.0278778" width="17.7276" height="17.7276" fill="#D9D9D9"/>
</mask>
<g mask="url(#mask0_1_6861)">
<path d="M8.58383 11.292H10.8736L11.1506 12.1414C11.1999 12.2768 11.2799 12.3846 11.3907 12.4646C11.5015 12.5446 11.6246 12.5846 11.76 12.5846C11.9939 12.5846 12.1755 12.4892 12.3048 12.2984C12.434 12.1076 12.4617 11.9075 12.3879 11.6982L10.652 6.80469C10.6028 6.66927 10.5166 6.55848 10.3935 6.4723C10.2704 6.38612 10.135 6.34304 9.98726 6.34304H9.50714C9.35941 6.34304 9.22399 6.38612 9.10088 6.4723C8.97777 6.55848 8.8916 6.66927 8.84235 6.80469L7.08807 11.7352C7.0142 11.9445 7.0419 12.1383 7.17116 12.3169C7.30043 12.4954 7.47586 12.5846 7.69745 12.5846C7.83287 12.5846 7.95598 12.5446 8.06677 12.4646C8.17757 12.3846 8.25759 12.2768 8.30684 12.1414L8.58383 11.292ZM8.93469 10.2209L9.7472 7.7834L10.5412 10.2209H8.93469ZM8.2699 2.24354C8.06062 2.24354 7.88519 2.17275 7.74362 2.03118C7.60204 1.8896 7.53125 1.71417 7.53125 1.50489C7.53125 1.29561 7.60204 1.12018 7.74362 0.978604C7.88519 0.83703 8.06062 0.766243 8.2699 0.766243H11.2245C11.4338 0.766243 11.6092 0.83703 11.7508 0.978604C11.8924 1.12018 11.9631 1.29561 11.9631 1.50489C11.9631 1.71417 11.8924 1.8896 11.7508 2.03118C11.6092 2.17275 11.4338 2.24354 11.2245 2.24354H8.2699ZM9.7472 16.2779C8.8362 16.2779 7.97752 16.1024 7.17116 15.7516C6.36481 15.4007 5.66001 14.9237 5.05678 14.3204C4.45355 13.7172 3.97651 13.0124 3.62565 12.2061C3.27479 11.3997 3.09937 10.541 3.09937 9.63002C3.09937 8.71902 3.27479 7.86034 3.62565 7.05399C3.97651 6.24763 4.45355 5.54283 5.05678 4.93961C5.66001 4.33638 6.36481 3.85933 7.17116 3.50847C7.97752 3.15762 8.8362 2.98219 9.7472 2.98219C10.5105 2.98219 11.243 3.1053 11.9447 3.35151C12.6464 3.59773 13.305 3.95474 13.9206 4.42255L14.4376 3.9055C14.573 3.77008 14.7454 3.70237 14.9547 3.70237C15.164 3.70237 15.3363 3.77008 15.4717 3.9055C15.6071 4.04092 15.6749 4.21327 15.6749 4.42255C15.6749 4.63184 15.6071 4.80419 15.4717 4.93961L14.9547 5.45666C15.4225 6.0722 15.7795 6.73083 16.0257 7.43254C16.2719 8.13426 16.395 8.86675 16.395 9.63002C16.395 10.541 16.2196 11.3997 15.8687 12.2061C15.5179 13.0124 15.0408 13.7172 14.4376 14.3204C13.8344 14.9237 13.1296 15.4007 12.3232 15.7516C11.5169 16.1024 10.6582 16.2779 9.7472 16.2779Z" fill="#3366FF"/>
</g>
</svg>
